# xmcd
#
# Track frame offsets: 
#        150
#        19067
#        37301
#        57389
#        78786
#        99225
#        118373
#        140438
#        159303
#        178263
#
# Disc length: 2694 seconds
#
# Revision: 2
# Processed by: cddbd v1.5.2PL0 Copyright (c) Steve Scherf et al.
# Submitted via: ExactAudioCopy v0.99pb5
#
DISCID=840a840a
DTITLE=Theodis Ealey - Stuck betwenn Rhythm and Blues
DYEAR=1995
DGENRE=Blues
TTITLE0=Bluesman Lover
TTITLE1=Do You Love Me?
TTITLE2=You're On My Mind
TTITLE3=Was It Me?
TTITLE4=Dreamin'
TTITLE5=(Tell Me) Why I Can't Trust You
TTITLE6=I Don't Wanna Talk About It
TTITLE7=Goody Sack
TTITLE8=Lonely Sunday
TTITLE9=Stuck Between Rhythm and Blues (Matt's Song)
EXTD=
EXTT0=
EXTT1=
EXTT2=
EXTT3=
EXTT4=
EXTT5=
EXTT6=
EXTT7=
EXTT8=
EXTT9=
PLAYORDER=
